<?xml version="1.0" encoding="UTF-8" standalone="no"?>
<!-- Created with Inkscape (http://www.inkscape.org/) -->

<svg
   xmlns:dc="http://purl.org/dc/elements/1.1/"
   xmlns:cc="http://creativecommons.org/ns#"
   xmlns:rdf="http://www.w3.org/1999/02/22-rdf-syntax-ns#"
   xmlns:svg="http://www.w3.org/2000/svg"
   xmlns="http://www.w3.org/2000/svg"
   xmlns:sodipodi="http://sodipodi.sourceforge.net/DTD/sodipodi-0.dtd"
   xmlns:inkscape="http://www.inkscape.org/namespaces/inkscape"
   width="60"
   height="60"
   viewBox="0 0 15.875 15.875"
   version="1.1"
   id="svg8168"
   inkscape:version="0.92.3 (2405546, 2018-03-11)"
   sodipodi:docname="CapsSquare-cursive.svg">
  <defs
     id="defs8162">
    <filter
       inkscape:collect="always"
       style="color-interpolation-filters:sRGB"
       id="filter9421"
       x="-0.0348"
       width="1.0696"
       y="-0.0348"
       height="1.0696">
      <feGaussianBlur
         inkscape:collect="always"
         stdDeviation="2.0936101"
         id="feGaussianBlur9423" />
    </filter>
  </defs>
  <sodipodi:namedview
     id="base"
     pagecolor="#ffffff"
     bordercolor="#666666"
     borderopacity="1.0"
     inkscape:pageopacity="0.0"
     inkscape:pageshadow="2"
     inkscape:zoom="5.6"
     inkscape:cx="-2.0431148"
     inkscape:cy="44.90061"
     inkscape:document-units="mm"
     inkscape:current-layer="layer1"
     showgrid="false"
     units="px"
     inkscape:window-width="1920"
     inkscape:window-height="1001"
     inkscape:window-x="-9"
     inkscape:window-y="-9"
     inkscape:window-maximized="1" />
  <metadata
     id="metadata8165">
    <rdf:RDF>
      <cc:Work
         rdf:about="">
        <dc:format>image/svg+xml</dc:format>
        <dc:type
           rdf:resource="http://purl.org/dc/dcmitype/StillImage" />
        <dc:title></dc:title>
      </cc:Work>
    </rdf:RDF>
  </metadata>
  <g
     inkscape:label="Layer 1"
     inkscape:groupmode="layer"
     id="layer1"
     transform="translate(0,-281.12498)">
    <rect
       style="opacity:0.46799999;fill:#999999;fill-opacity:1;stroke:#cccccc;stroke-width:0;stroke-linejoin:round;stroke-miterlimit:4;stroke-dasharray:none;stroke-dashoffset:0;stroke-opacity:1;filter:url(#filter9421)"
       id="rect8713"
       width="144.3869"
       height="144.3869"
       x="17.386906"
       y="32.416664"
       ry="17.386906"
       rx="23.434525"
       transform="matrix(0.10055917,0,0,0.10055917,-0.97613197,278.44851)" />
    <g
       aria-label="Caps"
       transform="matrix(0.24314867,0,0,0.2512764,436.20347,280.99568)"
       style="font-style:normal;font-variant:normal;font-weight:normal;font-stretch:normal;font-size:35.72929001px;line-height:1.25;font-family:BaksodaDemo;-inkscape-font-specification:'BaksodaDemo, Normal';font-variant-ligatures:normal;font-variant-caps:normal;font-variant-numeric:normal;font-feature-settings:normal;text-align:start;letter-spacing:0px;word-spacing:0px;writing-mode:lr-tb;text-anchor:start;fill:#000000;fill-opacity:1;stroke:none"
       id="flowRoot8729">
      <path
         d="m -1764.7775,16.115619 q 0.1429,0 0.5002,0.107187 0.3573,0.07146 0.7146,0.285835 0.393,0.214375 0.6789,0.571668 0.2858,0.321564 0.2858,0.821774 0,0.357293 -0.4287,0.535939 -0.4288,0.178647 -1.2506,0.678857 -0.8217,0.464481 -2.0365,1.50063 -1.1791,1.00042 -2.7512,3.00126 -0.2144,0.285835 -0.5717,-0.03573 -0.3215,-0.357293 -0.3215,-1.071879 0,-0.607397 0.3215,-1.321983 0.3216,-0.750315 0.8218,-1.50063 -1.7865,0.571668 -3.5372,1.822193 -1.715,1.214796 -3.2871,2.894073 -1.5721,1.643547 -2.9298,3.608658 -1.3577,1.965111 -2.3581,4.001681 -1.0004,2.00084 -1.5721,3.930222 -0.5359,1.929381 -0.5359,3.537199 0,0.893232 0.1786,1.107608 0.1786,0.250105 0.5359,0.250105 0.6432,0 1.4649,-0.428751 0.8218,-0.393022 1.6793,-1.03615 0.8932,-0.607398 1.715,-1.393442 0.8575,-0.786044 1.5007,-1.536359 0.6788,-0.750316 1.0718,-1.357713 0.4288,-0.643128 0.4288,-0.964691 0,-0.428752 -0.072,-0.607398 -0.036,-0.214376 0.072,-0.321564 0.1072,-0.07146 0.3573,0.107188 0.2858,0.178646 0.5716,0.571669 0.2859,0.357293 0.5003,0.928961 0.2501,0.53594 0.2501,1.179067 0,0.535939 -0.4288,1.286254 -0.393,0.714586 -1.0719,1.464901 -0.6431,0.786045 -1.5363,1.53636 -0.8575,0.750315 -1.7865,1.321983 -0.8932,0.607398 -1.8222,0.964691 -0.8932,0.393022 -1.6435,0.393022 -2.2153,0 -3.43,-1.464901 -1.2148,-1.4649 -1.2148,-3.751575 0,-2.108028 0.786,-4.53762 0.786,-2.429592 2.108,-4.823454 1.3577,-2.393862 3.0727,-4.609078 1.7151,-2.215216 3.573,-3.894493 1.8936,-1.715006 3.7873,-2.715426 1.8936,-1.036149 3.5372,-1.036149 0.6074,0 1.2148,0.321563 0.6074,0.285834 1.1076,0.678857 0.5359,-0.464481 1.0004,-0.714586 0.4645,-0.285834 0.7503,-0.285833 z"
         id="path9436"
         inkscape:connector-curvature="0" />
      <path
         d="m -1756.8807,32.300987 q 0.4287,-0.428752 0.6431,-0.321564 0.2501,0.07146 0.2501,0.464481 0,0.357293 -0.2501,0.928962 -0.2501,0.571668 -0.7861,1.036149 -0.3215,0.321564 -1.1076,1.036149 -0.786,0.714586 -1.6435,1.429172 -0.8575,0.714586 -1.6436,1.286254 -0.7503,0.53594 -1.0718,0.53594 -0.143,0 -0.3573,-0.107188 -0.1787,-0.142917 -0.3573,-0.428752 -0.1787,-0.321563 -0.3216,-0.857502 -0.1072,-0.53594 -0.1072,-1.357713 0,-0.893233 0.2144,-1.857924 -0.5359,0.786045 -1.1791,1.607818 -0.6074,0.821774 -1.2148,1.500631 -0.6074,0.643127 -1.179,1.071878 -0.5717,0.428752 -1.0362,0.428752 -1.2505,0 -2.0366,-0.964691 -0.786,-0.964691 -0.786,-2.429592 0,-1.357713 0.7146,-2.929801 0.7146,-1.607819 1.8936,-2.965532 1.1791,-1.357713 2.7155,-2.250945 1.5363,-0.928961 3.2156,-0.928961 0.7146,0 1.1076,0.46448 0.4288,0.428752 0.6431,0.928962 0.4288,-0.643127 0.7861,-1.00042 0.393,-0.393022 0.6074,-0.393022 0.4645,0 0.9289,0.142917 0.4645,0.142917 0.8218,0.393022 0.3573,0.214376 0.5717,0.50021 0.2501,0.285834 0.2501,0.535939 0,0.214376 -0.536,0.964691 -0.5002,0.750315 -1.2147,1.822194 -0.7146,1.071879 -1.4292,2.358133 -0.7146,1.250525 -1.0719,2.50105 0.2144,-0.178646 0.786,-0.643127 0.6074,-0.464481 1.2506,-0.964691 0.6431,-0.50021 1.179,-0.928961 0.5717,-0.464481 0.7504,-0.607398 z m -10.433,3.03699 q 0.2144,0 0.7503,-0.50021 0.536,-0.500211 1.2148,-1.250526 0.6789,-0.750315 1.3935,-1.607818 0.7503,-0.893232 1.3577,-1.643547 0.6431,-0.786044 1.0361,-1.286254 0.393,-0.53594 0.4288,-0.571669 0.071,-0.07146 0.1072,-0.142917 -0.143,-0.03573 -0.4645,-0.03573 -0.7861,0 -1.6078,0.53594 -0.8218,0.50021 -1.6079,1.286254 -0.7503,0.786045 -1.3934,1.715006 -0.6431,0.893232 -1.0362,1.679277 -0.393,0.786044 -0.4644,1.321984 -0.072,0.50021 0.2858,0.50021 z"
         id="path9438"
         inkscape:connector-curvature="0" />
      <path
         d="m -1747.2355,26.334195 q 0.786,0 1.2148,0.714586 0.4287,0.678857 0.4287,1.857923 0,0.428752 -0.2501,1.321984 -0.2143,0.893232 -0.6431,2.00084 -0.393,1.071879 -1.0004,2.215216 -0.5717,1.143338 -1.2863,2.108028 -0.7146,0.928962 -1.5363,1.53636 -0.8218,0.607398 -1.715,0.607398 -0.6432,0 -1.1076,-0.321564 -0.4645,-0.357293 -0.7146,-0.821773 -0.2501,-0.500211 -0.2501,-0.964691 0,-0.464481 0.2858,-0.750315 0.2501,-0.250105 0.3216,-0.07146 0.1071,0.178647 0.2858,0.178647 0.5359,0 1.0361,-0.285835 0.5003,-0.321563 0.929,-0.786044 0.4288,-0.50021 0.786,-1.107608 0.3931,-0.643127 0.7146,-1.286255 0.7146,-1.50063 1.322,-3.465741 -1.322,0.821774 -2.6797,2.215216 -1.1433,1.179067 -2.5368,3.072719 -1.3577,1.857923 -2.5725,4.53762 -0.8217,1.893652 -1.715,4.144598 -0.9289,2.250945 -1.8936,4.930642 -0.1429,0.428751 -0.1429,0.678856 0,0.285834 0.036,0.464481 0.036,0.178646 0.071,0.250105 0,0.107188 -0.1071,0.142917 -0.2501,0.07146 -0.5717,-0.07146 -0.3573,-0.142918 -0.6789,-0.500211 -0.3215,-0.321563 -0.5359,-0.821773 -0.2501,-0.50021 -0.2501,-1.179067 0,-1.393442 0.6074,-3.465741 0.6074,-2.036569 1.5363,-4.323244 0.8933,-2.250945 1.9652,-4.53762 1.0718,-2.286674 2.0365,-4.073139 0.9647,-1.822194 1.6436,-2.965531 0.6788,-1.143337 0.8217,-1.143337 0.4645,0 0.929,0.142917 0.4645,0.142917 0.8218,0.393022 0.3573,0.214376 0.5717,0.50021 0.2501,0.285835 0.2501,0.53594 0,0.178646 -0.3573,0.750315 -0.3216,0.571668 -0.929,1.715006 1.4292,-1.715006 2.7154,-2.894073 1.2863,-1.179067 2.1438,-1.179067 z"
         id="path9440"
         inkscape:connector-curvature="0" />
      <path
         d="m -1736.74,32.336716 q 0.5716,-0.50021 0.7503,-0.357293 0.2144,0.142917 0.1429,0.571669 -0.072,0.428751 -0.393,1.00042 -0.2859,0.535939 -0.6432,0.893232 -0.5002,0.50021 -1.179,1.071879 -0.6431,0.571669 -1.3935,1.143337 0,1.214796 -0.1429,2.358133 -0.1072,1.143338 -0.5002,2.03657 -0.3573,0.893232 -1.0361,1.429172 -0.6789,0.535939 -1.8222,0.535939 -0.7503,0 -1.4292,-0.678857 -0.6431,-0.678856 -1.1791,-1.50063 -0.5359,-0.786044 -0.9647,-1.464901 -0.4287,-0.678856 -0.7503,-0.678856 -0.2858,0 -0.393,-0.178647 -0.1072,-0.178646 -0.036,-0.393022 0.036,-0.214376 0.2501,-0.428751 0.1786,-0.214376 0.5359,-0.285835 -0.071,-0.393022 0.072,-0.714585 0.1429,-0.357293 0.2501,-0.357293 0.1072,0 0.2144,0.107188 0.071,0.07146 0.2501,0.178646 0.1429,0.07146 0.393,0.178646 0.2501,0.07146 0.6788,0.07146 0.5717,0 1.1791,-0.178646 0.6074,-0.178647 1.2863,-0.464481 0.036,-1.143337 0,-2.358133 0,-1.214796 -0.036,-2.250946 -0.7146,0.857503 -1.5721,1.715006 -0.8575,0.857503 -1.8222,1.750736 -0.2858,0.285834 -0.5002,0.142917 -0.2143,-0.142917 -0.2858,-0.464481 -0.1072,-0.357293 0,-0.786044 0.072,-0.428752 0.4645,-0.714586 0.9289,-0.714586 2.0008,-2.00084 1.1076,-1.286255 2.0366,-2.643968 0.2501,-0.571669 0.6074,-1.00042 0.3573,-0.428752 0.7146,-0.714586 0.393,-0.321563 0.7503,-0.464481 0.393,-0.142917 0.6431,-0.142917 0.4645,0 1.0362,0.142917 0.5716,0.107188 0.8217,0.464481 0.2859,0.357293 0.072,1.00042 -0.1786,0.643127 -1.1791,1.643548 -0.5359,0.535939 -0.6431,1.893652 -0.071,1.321984 0,3.00126 0.8575,-0.607398 1.5364,-1.143337 0.7146,-0.571669 1.2148,-0.964691 z m -6.467,7.53888 q 0.2858,-0.285834 0.4644,-1.50063 -0.9646,0.321564 -2.0008,0.321564 h -0.3216 q 0.2501,0.321563 0.5003,0.607398 0.2501,0.285834 0.5002,0.464481 0.2501,0.214375 0.4644,0.250105 0.2144,0.03573 0.3931,-0.142918 z"
         id="path9442"
         inkscape:connector-curvature="0" />
    </g>
  </g>
</svg>
